<svg width="24" height="24" viewBox="0 0 24 24" fill="none" xmlns="http://www.w3.org/2000/svg">
<path d="M11.5 21.7501C5.85 21.7501 1.25 17.1501 1.25 11.5001C1.25 5.85009 5.85 1.25009 11.5 1.25009C17.15 1.25009 21.75 5.85009 21.75 11.5001C21.75 17.1501 17.15 21.7501 11.5 21.7501ZM11.5 2.75009C6.67 2.75009 2.75 6.68009 2.75 11.5001C2.75 16.3201 6.67 20.2501 11.5 20.2501C16.33 20.2501 20.25 16.3201 20.25 11.5001C20.25 6.68009 16.33 2.75009 11.5 2.75009Z" fill="#292526"/>
<path d="M22 22.7499C21.81 22.7499 21.62 22.6799 21.47 22.5299L19.47 20.5299C19.18 20.2399 19.18 19.7599 19.47 19.4699C19.76 19.1799 20.24 19.1799 20.53 19.4699L22.53 21.4699C22.82 21.7599 22.82 22.2399 22.53 22.5299C22.38 22.6799 22.19 22.7499 22 22.7499Z" fill="#292526"/>
</svg>
