<svg width="24" height="24" viewBox="0 0 24 24" fill="none" xmlns="http://www.w3.org/2000/svg">
<path d="M22 7.25009H16C15.59 7.25009 15.25 6.91009 15.25 6.50009C15.25 6.09009 15.59 5.75009 16 5.75009H22C22.41 5.75009 22.75 6.09009 22.75 6.50009C22.75 6.91009 22.41 7.25009 22 7.25009Z" fill="#292526"/>
<path d="M6 7.25009H2C1.59 7.25009 1.25 6.91009 1.25 6.50009C1.25 6.09009 1.59 5.75009 2 5.75009H6C6.41 5.75009 6.75 6.09009 6.75 6.50009C6.75 6.91009 6.41 7.25009 6 7.25009Z" fill="#292526"/>
<path d="M10 10.75C7.66 10.75 5.75 8.84 5.75 6.5C5.75 4.16 7.66 2.25 10 2.25C12.34 2.25 14.25 4.16 14.25 6.5C14.25 8.84 12.34 10.75 10 10.75ZM10 3.75C8.48 3.75 7.25 4.98 7.25 6.5C7.25 8.02 8.48 9.25 10 9.25C11.52 9.25 12.75 8.02 12.75 6.5C12.75 4.98 11.52 3.75 10 3.75Z" fill="#292526"/>
<path d="M22 18.2499H18C17.59 18.2499 17.25 17.9099 17.25 17.4999C17.25 17.0899 17.59 16.7499 18 16.7499H22C22.41 16.7499 22.75 17.0899 22.75 17.4999C22.75 17.9099 22.41 18.2499 22 18.2499Z" fill="#292526"/>
<path d="M8 18.2499H2C1.59 18.2499 1.25 17.9099 1.25 17.4999C1.25 17.0899 1.59 16.7499 2 16.7499H8C8.41 16.7499 8.75 17.0899 8.75 17.4999C8.75 17.9099 8.41 18.2499 8 18.2499Z" fill="#292526"/>
<path d="M14 21.7501C11.66 21.7501 9.75 19.8401 9.75 17.5001C9.75 15.1601 11.66 13.2501 14 13.2501C16.34 13.2501 18.25 15.1601 18.25 17.5001C18.25 19.8401 16.34 21.7501 14 21.7501ZM14 14.7501C12.48 14.7501 11.25 15.9801 11.25 17.5001C11.25 19.0201 12.48 20.2501 14 20.2501C15.52 20.2501 16.75 19.0201 16.75 17.5001C16.75 15.9801 15.52 14.7501 14 14.7501Z" fill="#292526"/>
</svg>
